<svg xmlns="http://www.w3.org/2000/svg" width="130" height="60" viewBox="0 0 382 66" fill="none" >
  <path d="M109.499 49.6984C106.464 49.6984 103.732 49.1955 101.303 48.189C98.8742 47.1406 96.966 45.6737 95.5787 43.7869C94.1907 41.9001 93.4966 39.6987 93.4966 37.1827H101.433C101.606 39.0695 102.365 40.6208 103.71 41.8366C105.097 43.0531 107.027 43.6606 109.499 43.6606C112.058 43.6606 114.053 43.074 115.484 41.9001C116.914 40.6836 117.63 39.1323 117.63 37.2455C117.63 35.7779 117.175 34.583 116.264 33.6608C115.397 32.7384 114.291 32.0256 112.947 31.5225C111.646 31.0193 109.824 30.4742 107.482 29.8872C104.534 29.1325 102.127 28.3778 100.262 27.6231C98.4407 26.8264 96.8795 25.6104 95.5787 23.9752C94.2772 22.34 93.6273 20.1597 93.6273 17.4343C93.6273 14.9186 94.2772 12.7173 95.5787 10.8306C96.8795 8.94377 98.7011 7.49717 101.043 6.49092C103.385 5.4846 106.095 4.98148 109.174 4.98148C113.554 4.98148 117.132 6.05064 119.907 8.18905C122.726 10.2855 124.287 13.1786 124.591 16.8683H116.394C116.264 15.275 115.484 13.9123 114.053 12.7802C112.621 11.6481 110.735 11.0821 108.394 11.0821C106.268 11.0821 104.534 11.6062 103.189 12.6545C101.845 13.7027 101.173 15.2121 101.173 17.1828C101.173 18.5245 101.585 19.6356 102.409 20.5161C103.276 21.3547 104.36 22.0256 105.662 22.5287C106.962 23.0318 108.74 23.5769 110.995 24.1639C113.988 24.9605 116.416 25.7572 118.281 26.5538C120.189 27.3505 121.794 28.5874 123.094 30.2645C124.439 31.8998 125.111 34.1011 125.111 36.8681C125.111 39.0904 124.482 41.1872 123.225 43.1577C122.01 45.1282 120.211 46.7214 117.826 47.9379C115.484 49.1118 112.709 49.6984 109.499 49.6984Z" fill="black"/>
  <path d="M148.692 14.0381C151.511 14.0381 154.026 14.6041 156.238 15.7362C158.493 16.8683 160.249 18.5455 161.507 20.7677C162.764 22.9899 163.393 25.6733 163.393 28.818V49.2583H156.043V29.8872C156.043 26.7844 155.24 24.4155 153.636 22.7803C152.032 21.1031 149.841 20.2645 147.066 20.2645C144.291 20.2645 142.079 21.1031 140.431 22.7803C138.826 24.4155 138.024 26.7844 138.024 29.8872V49.2583H130.608V14.6041H138.024V18.5664C139.238 17.1408 140.778 16.0297 142.643 15.2331C144.551 14.4364 146.567 14.0381 148.692 14.0381Z" fill="black"/>
  <path d="M167.128 31.774C167.128 28.2939 167.865 25.2121 169.34 22.5287C170.858 19.8452 172.896 17.7698 175.454 16.3022C178.056 14.7928 180.918 14.0381 184.041 14.0381C186.86 14.0381 189.31 14.5832 191.391 15.6733C193.517 16.7215 195.208 18.0423 196.465 19.6356V14.6041H203.946V49.2583H196.465V44.1007C195.208 45.7365 193.494 47.0987 191.327 48.1889C189.158 49.2792 186.686 49.8247 183.911 49.8247C180.832 49.8247 178.013 49.07 175.454 47.5605C172.896 46.0085 170.858 43.8706 169.34 41.1454C167.865 38.3776 167.128 35.2541 167.128 31.774ZM196.465 31.8998C196.465 29.5099 195.945 27.4344 194.904 25.6733C193.907 23.9124 192.584 22.5706 190.936 21.6482C189.288 20.7257 187.51 20.2645 185.602 20.2645C183.694 20.2645 181.916 20.7257 180.268 21.6482C178.62 22.5287 177.276 23.8495 176.235 25.6104C175.238 27.3296 174.739 29.384 174.739 31.774C174.739 34.164 175.238 36.2606 176.235 38.063C177.276 39.8661 178.62 41.25 180.268 42.2139C181.959 43.1368 183.738 43.5979 185.602 43.5979C187.51 43.5979 189.288 43.1368 190.936 42.2139C192.584 41.2918 193.907 39.9498 194.904 38.1893C195.945 36.3861 196.465 34.2897 196.465 31.8998Z" fill="black"/>
  <path d="M217.849 19.6985C219.107 18.1052 220.82 16.7634 222.988 15.6733C225.157 14.5832 227.607 14.0381 230.339 14.0381C233.461 14.0381 236.301 14.7928 238.86 16.3022C241.462 17.7698 243.5 19.8452 244.975 22.5287C246.449 25.2121 247.186 28.2939 247.186 31.774C247.186 35.2541 246.449 38.3776 244.975 41.1454C243.5 43.8706 241.462 46.0085 238.86 47.5605C236.301 49.07 233.461 49.8247 230.339 49.8247C227.607 49.8247 225.178 49.3001 223.054 48.2517C220.928 47.1622 219.194 45.8202 217.849 44.227V65.7366H210.433V14.6041H217.849V19.6985ZM239.641 31.774C239.641 29.384 239.121 27.3296 238.08 25.6104C237.082 23.8495 235.738 22.5287 234.047 21.6482C232.398 20.7257 230.621 20.2645 228.712 20.2645C226.848 20.2645 225.07 20.7257 223.378 21.6482C221.73 22.5706 220.386 23.9124 219.345 25.6733C218.348 27.4344 217.849 29.5099 217.849 31.8998C217.849 34.2897 218.348 36.3861 219.345 38.1893C220.386 39.9498 221.73 41.2918 223.378 42.2139C225.07 43.1368 226.848 43.5979 228.712 43.5979C230.621 43.5979 232.398 43.1368 234.047 42.2139C235.738 41.25 237.082 39.8661 238.08 38.063C239.121 36.2606 239.641 34.164 239.641 31.774Z" fill="black"/>
  <path d="M266.163 49.6984C263.128 49.6984 260.396 49.1955 257.967 48.189C255.539 47.1406 253.631 45.6737 252.243 43.7869C250.855 41.9001 250.161 39.6987 250.161 37.1827H258.098C258.271 39.0695 259.03 40.6208 260.374 41.8366C261.762 43.0531 263.692 43.6606 266.163 43.6606C268.722 43.6606 270.717 43.074 272.148 41.9001C273.579 40.6836 274.295 39.1323 274.295 37.2455C274.295 35.7779 273.839 34.583 272.929 33.6608C272.061 32.7384 270.956 32.0256 269.611 31.5225C268.31 31.0193 266.489 30.4742 264.147 29.8872C261.199 29.1325 258.791 28.3778 256.927 27.6231C255.105 26.8264 253.544 25.6104 252.243 23.9752C250.942 22.34 250.292 20.1597 250.292 17.4343C250.292 14.9186 250.942 12.7173 252.243 10.8306C253.544 8.94377 255.366 7.49717 257.707 6.49092C260.049 5.4846 262.76 4.98148 265.838 4.98148C270.219 4.98148 273.796 6.05064 276.572 8.18905C279.39 10.2855 280.951 13.1786 281.255 16.8683H273.059C272.929 15.275 272.148 13.9123 270.717 12.7802C269.286 11.6481 267.399 11.0821 265.057 11.0821C262.933 11.0821 261.199 11.6062 259.854 12.6545C258.51 13.7027 257.837 15.2121 257.837 17.1828C257.837 18.5245 258.249 19.6356 259.073 20.5161C259.94 21.3547 261.025 22.0256 262.325 22.5287C263.627 23.0318 265.404 23.5769 267.66 24.1639C270.652 24.9605 273.081 25.7572 274.945 26.5538C276.854 27.3505 278.458 28.5874 279.759 30.2645C281.104 31.8998 281.775 34.1011 281.775 36.8681C281.775 39.0904 281.147 41.1872 279.889 43.1577C278.675 45.1282 276.875 46.7214 274.49 47.9379C272.148 49.1118 269.373 49.6984 266.163 49.6984Z" fill="black"/>
  <path d="M305.812 14.0381C308.544 14.0381 310.973 14.6041 313.098 15.7362C315.266 16.8683 316.957 18.5455 318.171 20.7677C319.429 22.9899 320.058 25.6733 320.058 28.818V49.2583H312.707V29.8872C312.707 26.7844 311.905 24.4155 310.301 22.7803C308.696 21.1031 306.506 20.2645 303.73 20.2645C300.955 20.2645 298.743 21.1031 297.095 22.7803C295.491 24.4155 294.689 26.7844 294.689 29.8872V49.2583H287.273V2.71731H294.689V18.6293C295.946 17.1618 297.529 16.0297 299.437 15.2331C301.389 14.4364 303.514 14.0381 305.812 14.0381Z" fill="black"/>
  <path d="M341.811 49.8247C338.428 49.8247 335.372 49.0909 332.64 47.6233C329.908 46.1138 327.761 44.017 326.199 41.3337C324.638 38.6085 323.858 35.4641 323.858 31.8998C323.858 28.3778 324.66 25.2541 326.264 22.5287C327.869 19.8033 330.059 17.7068 332.834 16.2394C335.61 14.7719 338.711 14.0381 342.137 14.0381C345.563 14.0381 348.663 14.7719 351.439 16.2394C354.214 17.7068 356.404 19.8033 358.008 22.5287C359.613 25.2541 360.416 28.3778 360.416 31.8998C360.416 35.4214 359.592 38.5457 357.943 41.2709C356.295 43.9961 354.04 46.1138 351.178 47.6233C348.36 49.0909 345.237 49.8247 341.811 49.8247ZM341.811 43.5979C343.719 43.5979 345.497 43.1577 347.146 42.2775C348.837 41.3964 350.202 40.0761 351.243 38.3148C352.284 36.5535 352.804 34.4155 352.804 31.8998C352.804 29.384 352.306 27.2666 351.308 25.5476C350.311 23.7865 348.988 22.4658 347.34 21.5853C345.693 20.7048 343.914 20.2645 342.007 20.2645C340.099 20.2645 338.32 20.7048 336.672 21.5853C335.068 22.4658 333.789 23.7865 332.834 25.5476C331.881 27.2666 331.403 29.384 331.403 31.8998C331.403 35.6314 332.379 38.5248 334.331 40.579C336.325 42.5913 338.819 43.5979 341.811 43.5979Z" fill="black"/>
  <path d="M373.145 20.4532V39.6359C373.145 40.9354 373.449 41.8792 374.056 42.4658C374.706 43.0113 375.79 43.2833 377.308 43.2833H381.862V49.2583H376.008C372.668 49.2583 370.11 48.5035 368.331 46.9941C366.554 45.4847 365.664 43.0322 365.664 39.6359V20.4532H361.437V14.6041H365.664V5.98772H373.145V14.6041H381.862V20.4532H373.145Z" fill="black"/>
  <path d="M54.6287 54.2257H23.3488V62.3822H54.6287C65.4263 62.3822 74.1789 55.0786 74.1789 46.0692V19.9683H64.4038V46.0692C64.4038 50.5739 60.0275 54.2257 54.6287 54.2257Z" fill="#FFC700"/>
  <path d="M19.9975 8.54922H51.2774V0.3927H19.9975C9.2002 0.3927 0.447266 7.69605 0.447266 16.7057V42.8066H10.2224V16.7057C10.2224 12.2009 14.5988 8.54922 19.9975 8.54922Z" fill="#FFC700"/>
  <path fill-rule="evenodd" clip-rule="evenodd" d="M56.8631 31.3875C56.8631 22.378 48.1106 15.0744 37.3133 15.0744C26.516 15.0744 17.7631 22.378 17.7631 31.3875C17.7631 40.3969 26.516 47.7005 37.3133 47.7005C48.1106 47.7005 56.8631 40.3969 56.8631 31.3875ZM47.0884 31.3875C47.0884 26.8827 42.7119 23.231 37.3133 23.231C31.9146 23.231 27.5382 26.8827 27.5382 31.3875C27.5382 35.8922 31.9146 39.544 37.3133 39.544C42.7119 39.544 47.0884 35.8922 47.0884 31.3875Z" fill="black"/>
</svg>