

<svg xmlns="http://www.w3.org/2000/svg" width="30px" height="30px" viewBox="0 0 40 37" fill="none">
  <path d="M29.3938 32.1316H12.4242V37H29.3938C35.2516 37 40 32.6407 40 27.2632V11.6842H34.6969V27.2632C34.6969 29.9519 32.3227 32.1316 29.3938 32.1316Z" fill="#FFC700"/>
  <path d="M10.6062 4.86842H27.5758V0H10.6062C4.74854 0 0 4.35918 0 9.73684V25.3158H5.30308V9.73684C5.30308 7.04801 7.67732 4.86842 10.6062 4.86842Z" fill="#FF0F00"/>
  <path fill-rule="evenodd" clip-rule="evenodd" d="M30.606 18.5C30.606 13.1225 25.8577 8.76316 20.0001 8.76316C14.1425 8.76316 9.39396 13.1225 9.39396 18.5C9.39396 23.8775 14.1425 28.2368 20.0001 28.2368C25.8577 28.2368 30.606 23.8775 30.606 18.5ZM25.3032 18.5C25.3032 15.8112 22.9289 13.6316 20.0001 13.6316C17.0713 13.6316 14.697 15.8112 14.697 18.5C14.697 21.1887 17.0713 23.3684 20.0001 23.3684C22.9289 23.3684 25.3032 21.1887 25.3032 18.5Z" fill="#FF0F00"/>
</svg>
